<svg width="112" height="29" viewBox="0 0 112 29" fill="none" xmlns="http://www.w3.org/2000/svg">
<rect x="0.5" y="0.5" width="111" height="28" rx="1.5" fill="#1E1E1E"/>
<rect x="0.5" y="0.5" width="111" height="28" rx="1.5" stroke="#252525"/>
<path d="M9.05682 10.2727H10.3182L13.2841 17.517H13.3864L16.3523 10.2727H17.6136V19H16.625V12.3693H16.5398L13.8125 19H12.858L10.1307 12.3693H10.0455V19H9.05682V10.2727ZM21.5224 19.1534C21.1076 19.1534 20.7312 19.0753 20.3931 18.919C20.055 18.7599 19.7866 18.5312 19.5877 18.233C19.3888 17.9318 19.2894 17.5682 19.2894 17.142C19.2894 16.767 19.3633 16.4631 19.511 16.2301C19.6587 15.9943 19.8562 15.8097 20.1033 15.6761C20.3505 15.5426 20.6232 15.4432 20.9215 15.3778C21.2227 15.3097 21.5252 15.2557 21.8292 15.2159C22.2269 15.1648 22.5494 15.1264 22.7965 15.1009C23.0465 15.0724 23.2283 15.0256 23.342 14.9602C23.4585 14.8949 23.5167 14.7812 23.5167 14.6193V14.5852C23.5167 14.1648 23.4016 13.8381 23.1715 13.6051C22.9442 13.3722 22.5991 13.2557 22.136 13.2557C21.6559 13.2557 21.2795 13.3608 21.0067 13.571C20.734 13.7812 20.5423 14.0057 20.4315 14.2443L19.4769 13.9034C19.6474 13.5057 19.8746 13.196 20.1587 12.9744C20.4457 12.75 20.7582 12.5937 21.0962 12.5057C21.4371 12.4148 21.7724 12.3693 22.1019 12.3693C22.3121 12.3693 22.5536 12.3949 22.8263 12.446C23.1019 12.4943 23.3675 12.5952 23.6232 12.7486C23.8817 12.902 24.0962 13.1335 24.2667 13.4432C24.4371 13.7528 24.5224 14.1676 24.5224 14.6875V19H23.5167V18.1136H23.4656C23.3974 18.2557 23.2837 18.4077 23.1246 18.5696C22.9656 18.7315 22.7539 18.8693 22.4897 18.983C22.2255 19.0966 21.9031 19.1534 21.5224 19.1534ZM21.6758 18.25C22.0735 18.25 22.4087 18.1719 22.6815 18.0156C22.957 17.8594 23.1644 17.6577 23.3036 17.4105C23.4457 17.1634 23.5167 16.9034 23.5167 16.6307V15.7102C23.4741 15.7614 23.3803 15.8082 23.2354 15.8509C23.0934 15.8906 22.9286 15.9261 22.7411 15.9574C22.5565 15.9858 22.3761 16.0114 22.1999 16.0341C22.0266 16.054 21.886 16.071 21.7781 16.0852C21.5167 16.1193 21.2724 16.1747 21.0451 16.2514C20.8207 16.3253 20.6388 16.4375 20.4996 16.5881C20.3633 16.7358 20.2951 16.9375 20.2951 17.1932C20.2951 17.5426 20.4244 17.8068 20.6829 17.9858C20.9442 18.1619 21.2752 18.25 21.6758 18.25ZM26.358 19V12.4545H27.3636V19H26.358ZM26.8693 11.3636C26.6733 11.3636 26.5043 11.2969 26.3622 11.1634C26.223 11.0298 26.1534 10.8693 26.1534 10.6818C26.1534 10.4943 26.223 10.3338 26.3622 10.2003C26.5043 10.0668 26.6733 10 26.8693 10C27.0653 10 27.233 10.0668 27.3722 10.2003C27.5142 10.3338 27.5852 10.4943 27.5852 10.6818C27.5852 10.8693 27.5142 11.0298 27.3722 11.1634C27.233 11.2969 27.0653 11.3636 26.8693 11.3636ZM33.842 13.9205L32.9386 14.1761C32.8817 14.0256 32.7979 13.8793 32.6871 13.7372C32.5792 13.5923 32.4315 13.473 32.244 13.3793C32.0565 13.2855 31.8164 13.2386 31.5238 13.2386C31.1232 13.2386 30.7894 13.331 30.5224 13.5156C30.2582 13.6974 30.1261 13.929 30.1261 14.2102C30.1261 14.4602 30.217 14.6577 30.3988 14.8026C30.5806 14.9474 30.8647 15.0682 31.2511 15.1648L32.2227 15.4034C32.8079 15.5455 33.244 15.7628 33.5309 16.0554C33.8178 16.3452 33.9613 16.7187 33.9613 17.1761C33.9613 17.5511 33.8533 17.8864 33.6374 18.1818C33.4244 18.4773 33.1261 18.7102 32.7425 18.8807C32.359 19.0511 31.913 19.1364 31.4045 19.1364C30.7369 19.1364 30.1843 18.9915 29.7468 18.7017C29.3093 18.4119 29.0323 17.9886 28.9158 17.4318L29.8704 17.1932C29.9613 17.5455 30.1332 17.8097 30.386 17.9858C30.6417 18.1619 30.9755 18.25 31.3874 18.25C31.8562 18.25 32.2283 18.1506 32.5039 17.9517C32.7823 17.75 32.9215 17.5085 32.9215 17.2273C32.9215 17 32.842 16.8097 32.6829 16.6562C32.5238 16.5 32.2795 16.3835 31.9499 16.3068L30.859 16.0511C30.2596 15.9091 29.8192 15.6889 29.538 15.3906C29.2596 15.0895 29.1204 14.7131 29.1204 14.2614C29.1204 13.892 29.2241 13.5653 29.4315 13.2812C29.6417 12.9972 29.9272 12.7741 30.288 12.6122C30.6516 12.4503 31.0636 12.3693 31.5238 12.3693C32.1715 12.3693 32.68 12.5114 33.0494 12.7955C33.4215 13.0795 33.6857 13.4545 33.842 13.9205ZM38.8501 19V12.4545H39.8217V13.4432H39.8899C40.0092 13.1193 40.2251 12.8565 40.5376 12.6548C40.8501 12.4531 41.2024 12.3523 41.5945 12.3523C41.6683 12.3523 41.7607 12.3537 41.8714 12.3565C41.9822 12.3594 42.0661 12.3636 42.1229 12.3693V13.392C42.0888 13.3835 42.0107 13.3707 41.8885 13.3537C41.7692 13.3338 41.6428 13.3239 41.5092 13.3239C41.1911 13.3239 40.907 13.3906 40.657 13.5241C40.4098 13.6548 40.2138 13.8366 40.0689 14.0696C39.9268 14.2997 39.8558 14.5625 39.8558 14.858V19H38.8501ZM45.8601 19.1364C45.2294 19.1364 44.6854 18.9972 44.228 18.7188C43.7734 18.4375 43.4226 18.0455 43.1754 17.5426C42.9311 17.0369 42.8089 16.4489 42.8089 15.7784C42.8089 15.108 42.9311 14.517 43.1754 14.0057C43.4226 13.4915 43.7663 13.0909 44.2067 12.804C44.6499 12.5142 45.1669 12.3693 45.7578 12.3693C46.0987 12.3693 46.4354 12.4261 46.7678 12.5398C47.1001 12.6534 47.4027 12.8381 47.6754 13.0938C47.9482 13.3466 48.1655 13.6818 48.3274 14.0994C48.4893 14.517 48.5703 15.0312 48.5703 15.642V16.0682H43.5249V15.1989H47.5476C47.5476 14.8295 47.4737 14.5 47.326 14.2102C47.1811 13.9205 46.9737 13.6918 46.7038 13.5241C46.4368 13.3565 46.1214 13.2727 45.7578 13.2727C45.3572 13.2727 45.0107 13.3722 44.718 13.571C44.4283 13.767 44.2053 14.0227 44.049 14.3381C43.8928 14.6534 43.8146 14.9915 43.8146 15.3523V15.9318C43.8146 16.4261 43.8999 16.8452 44.0703 17.1889C44.2436 17.5298 44.4837 17.7898 44.7905 17.9688C45.0973 18.1449 45.4538 18.233 45.8601 18.233C46.1243 18.233 46.3629 18.196 46.576 18.1222C46.7919 18.0455 46.978 17.9318 47.1342 17.7812C47.2905 17.6278 47.4112 17.4375 47.4964 17.2102L48.468 17.483C48.3658 17.8125 48.1939 18.1023 47.9524 18.3523C47.7109 18.5994 47.4126 18.7926 47.0575 18.9318C46.7024 19.0682 46.3033 19.1364 45.8601 19.1364ZM52.7592 19.1364C52.1456 19.1364 51.6172 18.9915 51.174 18.7017C50.7308 18.4119 50.3899 18.0128 50.1513 17.5043C49.9126 16.9957 49.7933 16.4148 49.7933 15.7614C49.7933 15.0966 49.9155 14.5099 50.1598 14.0014C50.407 13.4901 50.7507 13.0909 51.1911 12.804C51.6342 12.5142 52.1513 12.3693 52.7422 12.3693C53.2024 12.3693 53.6172 12.4545 53.9865 12.625C54.3558 12.7955 54.6584 13.0341 54.8942 13.3409C55.13 13.6477 55.2763 14.0057 55.3331 14.4148H54.3274C54.2507 14.1165 54.0803 13.8523 53.8161 13.6222C53.5547 13.3892 53.2024 13.2727 52.7592 13.2727C52.3672 13.2727 52.0234 13.375 51.728 13.5795C51.4354 13.7812 51.2067 14.0668 51.0419 14.4361C50.88 14.8026 50.799 15.233 50.799 15.7273C50.799 16.233 50.8786 16.6733 51.0376 17.0483C51.1996 17.4233 51.4268 17.7145 51.7195 17.9219C52.0149 18.1293 52.3615 18.233 52.7592 18.233C53.0206 18.233 53.2578 18.1875 53.4709 18.0966C53.6839 18.0057 53.8643 17.875 54.0121 17.7045C54.1598 17.5341 54.2649 17.3295 54.3274 17.0909H55.3331C55.2763 17.4773 55.1357 17.8253 54.9112 18.1349C54.6896 18.4418 54.3956 18.6861 54.0291 18.8679C53.6655 19.0469 53.2422 19.1364 52.7592 19.1364ZM59.5476 19.1364C58.9169 19.1364 58.3729 18.9972 57.9155 18.7188C57.4609 18.4375 57.1101 18.0455 56.8629 17.5426C56.6186 17.0369 56.4964 16.4489 56.4964 15.7784C56.4964 15.108 56.6186 14.517 56.8629 14.0057C57.1101 13.4915 57.4538 13.0909 57.8942 12.804C58.3374 12.5142 58.8544 12.3693 59.4453 12.3693C59.7862 12.3693 60.1229 12.4261 60.4553 12.5398C60.7876 12.6534 61.0902 12.8381 61.3629 13.0938C61.6357 13.3466 61.853 13.6818 62.0149 14.0994C62.1768 14.517 62.2578 15.0312 62.2578 15.642V16.0682H57.2124V15.1989H61.2351C61.2351 14.8295 61.1612 14.5 61.0135 14.2102C60.8686 13.9205 60.6612 13.6918 60.3913 13.5241C60.1243 13.3565 59.8089 13.2727 59.4453 13.2727C59.0447 13.2727 58.6982 13.3722 58.4055 13.571C58.1158 13.767 57.8928 14.0227 57.7365 14.3381C57.5803 14.6534 57.5021 14.9915 57.5021 15.3523V15.9318C57.5021 16.4261 57.5874 16.8452 57.7578 17.1889C57.9311 17.5298 58.1712 17.7898 58.478 17.9688C58.7848 18.1449 59.1413 18.233 59.5476 18.233C59.8118 18.233 60.0504 18.196 60.2635 18.1222C60.4794 18.0455 60.6655 17.9318 60.8217 17.7812C60.978 17.6278 61.0987 17.4375 61.1839 17.2102L62.1555 17.483C62.0533 17.8125 61.8814 18.1023 61.6399 18.3523C61.3984 18.5994 61.1001 18.7926 60.745 18.9318C60.3899 19.0682 59.9908 19.1364 59.5476 19.1364ZM64.7933 15.0625V19H63.7876V12.4545H64.7592V13.4773H64.8445C64.9979 13.1449 65.2308 12.8778 65.5433 12.6761C65.8558 12.4716 66.2592 12.3693 66.7536 12.3693C67.1967 12.3693 67.5845 12.4602 67.9169 12.642C68.2493 12.821 68.5078 13.0938 68.6925 13.4602C68.8771 13.8239 68.9695 14.2841 68.9695 14.8409V19H67.9638V14.9091C67.9638 14.3949 67.8303 13.9943 67.5632 13.7074C67.2962 13.4176 66.9297 13.2727 66.4638 13.2727C66.1428 13.2727 65.8558 13.3423 65.603 13.4815C65.353 13.6207 65.1555 13.8239 65.0107 14.0909C64.8658 14.358 64.7933 14.6818 64.7933 15.0625ZM73.6538 12.4545V13.3068H70.2617V12.4545H73.6538ZM71.2504 10.8864H72.256V17.125C72.256 17.4091 72.2972 17.6222 72.3796 17.7642C72.4648 17.9034 72.5728 17.9972 72.7035 18.0455C72.837 18.0909 72.9776 18.1136 73.1254 18.1136C73.2362 18.1136 73.3271 18.108 73.3981 18.0966C73.4691 18.0824 73.5259 18.071 73.5685 18.0625L73.7731 18.9659C73.7049 18.9915 73.6097 19.017 73.4876 19.0426C73.3654 19.071 73.2106 19.0852 73.0231 19.0852C72.739 19.0852 72.4606 19.0241 72.1879 18.902C71.918 18.7798 71.6935 18.5938 71.5146 18.3438C71.3384 18.0938 71.2504 17.7784 71.2504 17.3977V10.8864ZM77.8406 19.1364C77.2099 19.1364 76.6658 18.9972 76.2085 18.7188C75.7539 18.4375 75.4031 18.0455 75.1559 17.5426C74.9116 17.0369 74.7894 16.4489 74.7894 15.7784C74.7894 15.108 74.9116 14.517 75.1559 14.0057C75.4031 13.4915 75.7468 13.0909 76.1871 12.804C76.6303 12.5142 77.1474 12.3693 77.7383 12.3693C78.0792 12.3693 78.4158 12.4261 78.7482 12.5398C79.0806 12.6534 79.3832 12.8381 79.6559 13.0938C79.9286 13.3466 80.146 13.6818 80.3079 14.0994C80.4698 14.517 80.5508 15.0312 80.5508 15.642V16.0682H75.5053V15.1989H79.5281C79.5281 14.8295 79.4542 14.5 79.3065 14.2102C79.1616 13.9205 78.9542 13.6918 78.6843 13.5241C78.4173 13.3565 78.1019 13.2727 77.7383 13.2727C77.3377 13.2727 76.9911 13.3722 76.6985 13.571C76.4087 13.767 76.1857 14.0227 76.0295 14.3381C75.8732 14.6534 75.7951 14.9915 75.7951 15.3523V15.9318C75.7951 16.4261 75.8803 16.8452 76.0508 17.1889C76.2241 17.5298 76.4641 17.7898 76.771 17.9688C77.0778 18.1449 77.4343 18.233 77.8406 18.233C78.1048 18.233 78.3434 18.196 78.5565 18.1222C78.7724 18.0455 78.9585 17.9318 79.1147 17.7812C79.271 17.6278 79.3917 17.4375 79.4769 17.2102L80.4485 17.483C80.3462 17.8125 80.1744 18.1023 79.9329 18.3523C79.6914 18.5994 79.3931 18.7926 79.038 18.9318C78.6829 19.0682 78.2837 19.1364 77.8406 19.1364ZM86.717 13.9205L85.8136 14.1761C85.7567 14.0256 85.6729 13.8793 85.5621 13.7372C85.4542 13.5923 85.3065 13.473 85.119 13.3793C84.9315 13.2855 84.6914 13.2386 84.3988 13.2386C83.9982 13.2386 83.6644 13.331 83.3974 13.5156C83.1332 13.6974 83.0011 13.929 83.0011 14.2102C83.0011 14.4602 83.092 14.6577 83.2738 14.8026C83.4556 14.9474 83.7397 15.0682 84.1261 15.1648L85.0977 15.4034C85.6829 15.5455 86.119 15.7628 86.4059 16.0554C86.6928 16.3452 86.8363 16.7187 86.8363 17.1761C86.8363 17.5511 86.7283 17.8864 86.5124 18.1818C86.2994 18.4773 86.0011 18.7102 85.6175 18.8807C85.234 19.0511 84.788 19.1364 84.2795 19.1364C83.6119 19.1364 83.0593 18.9915 82.6218 18.7017C82.1843 18.4119 81.9073 17.9886 81.7908 17.4318L82.7454 17.1932C82.8363 17.5455 83.0082 17.8097 83.261 17.9858C83.5167 18.1619 83.8505 18.25 84.2624 18.25C84.7312 18.25 85.1033 18.1506 85.3789 17.9517C85.6573 17.75 85.7965 17.5085 85.7965 17.2273C85.7965 17 85.717 16.8097 85.5579 16.6562C85.3988 16.5 85.1545 16.3835 84.8249 16.3068L83.734 16.0511C83.1346 15.9091 82.6942 15.6889 82.413 15.3906C82.1346 15.0895 81.9954 14.7131 81.9954 14.2614C81.9954 13.892 82.0991 13.5653 82.3065 13.2812C82.5167 12.9972 82.8022 12.7741 83.163 12.6122C83.5266 12.4503 83.9386 12.3693 84.3988 12.3693C85.0465 12.3693 85.555 12.5114 85.9244 12.7955C86.2965 13.0795 86.5607 13.4545 86.717 13.9205Z" fill="#B7B4B0"/>
<path d="M101 17.5L98.4019 13L103.598 13L101 17.5Z" fill="#B7B4B0"/>
</svg>
