<svg width="187" height="166" viewBox="0 0 187 166" fill="none" xmlns="http://www.w3.org/2000/svg">
<rect x="0.5" y="0.5" width="186" height="165" rx="4.5" stroke="#8A38F5" stroke-dasharray="10 5"/>
<rect x="20.5" y="20.5" width="123" height="52" rx="3.5" fill="#1E1E1E"/>
<rect x="20.5" y="20.5" width="123" height="52" rx="3.5" stroke="#252525"/>
<rect x="30" y="33" width="10" height="10" rx="5" fill="#0E0E0E"/>
<path d="M48.9325 43V33.5455H52.478C53.2043 33.5455 53.8137 33.6716 54.3061 33.924C54.8016 34.1764 55.1755 34.5303 55.4279 34.9858C55.6834 35.4382 55.8111 35.966 55.8111 36.5692C55.8111 37.1755 55.6818 37.7018 55.4233 38.1481C55.1679 38.5913 54.7908 38.9344 54.2923 39.1776C53.7937 39.4176 53.1812 39.5376 52.4549 39.5376H49.9297V38.1158H52.2241C52.6488 38.1158 52.9966 38.0573 53.2674 37.9403C53.5382 37.8203 53.7383 37.6464 53.8675 37.4187C53.9999 37.1879 54.0661 36.9047 54.0661 36.5692C54.0661 36.2338 53.9999 35.9476 53.8675 35.7106C53.7352 35.4705 53.5336 35.2889 53.2628 35.1658C52.992 35.0397 52.6426 34.9766 52.2148 34.9766H50.6452V43H48.9325ZM53.8168 38.7159L56.1573 43H54.2461L51.9471 38.7159H53.8168ZM59.3542 43.1431C58.9049 43.1431 58.5002 43.0631 58.1401 42.9031C57.7831 42.7399 57.4999 42.4999 57.2907 42.1829C57.0845 41.8659 56.9814 41.475 56.9814 41.0103C56.9814 40.6102 57.0552 40.2794 57.2029 40.0178C57.3507 39.7562 57.5523 39.5469 57.8077 39.3899C58.0632 39.233 58.3509 39.1145 58.671 39.0344C58.9941 38.9513 59.3281 38.8913 59.6728 38.8544C60.0882 38.8113 60.4252 38.7728 60.6838 38.739C60.9423 38.7021 61.13 38.6467 61.247 38.5728C61.367 38.4959 61.427 38.3774 61.427 38.2173V38.1896C61.427 37.8419 61.3239 37.5726 61.1177 37.3817C60.9115 37.1909 60.6145 37.0955 60.2267 37.0955C59.8174 37.0955 59.4927 37.1848 59.2527 37.3633C59.0157 37.5418 58.8556 37.7526 58.7725 37.9957L57.2122 37.7741C57.3353 37.3433 57.5384 36.9832 57.8216 36.6939C58.1047 36.4015 58.4509 36.183 58.8603 36.0384C59.2696 35.8906 59.722 35.8168 60.2175 35.8168C60.5591 35.8168 60.8992 35.8568 61.2377 35.9368C61.5763 36.0168 61.8856 36.1491 62.1657 36.3338C62.4457 36.5154 62.6704 36.7631 62.8397 37.0771C63.012 37.391 63.0982 37.7834 63.0982 38.2543V43H61.4917V42.0259H61.4363C61.3347 42.2229 61.1916 42.4076 61.0069 42.5799C60.8253 42.7492 60.5961 42.8861 60.3191 42.9908C60.0452 43.0923 59.7235 43.1431 59.3542 43.1431ZM59.7882 41.9151C60.1236 41.9151 60.4145 41.849 60.6607 41.7166C60.9069 41.5812 61.0962 41.4027 61.2285 41.1811C61.3639 40.9595 61.4316 40.7179 61.4316 40.4563V39.6207C61.3793 39.6638 61.2901 39.7038 61.1639 39.7408C61.0408 39.7777 60.9023 39.81 60.7484 39.8377C60.5945 39.8654 60.4422 39.89 60.2914 39.9116C60.1406 39.9331 60.0098 39.9516 59.899 39.967C59.6497 40.0008 59.4266 40.0562 59.2296 40.1332C59.0326 40.2101 58.8772 40.3178 58.7633 40.4563C58.6494 40.5917 58.5925 40.7672 58.5925 40.9826C58.5925 41.2904 58.7048 41.5227 58.9295 41.6797C59.1542 41.8366 59.4404 41.9151 59.7882 41.9151ZM70.383 37.7834L68.8596 37.9496C68.8165 37.7957 68.7411 37.651 68.6333 37.5156C68.5287 37.3802 68.3871 37.271 68.2086 37.1879C68.0301 37.1048 67.8116 37.0632 67.5531 37.0632C67.2053 37.0632 66.9129 37.1386 66.676 37.2894C66.4421 37.4402 66.3266 37.6357 66.3297 37.8757C66.3266 38.0819 66.402 38.2496 66.5559 38.3789C66.7129 38.5082 66.9714 38.6143 67.3315 38.6974L68.541 38.956C69.2119 39.1006 69.7105 39.3299 70.0368 39.6438C70.3661 39.9577 70.5323 40.3686 70.5353 40.8764C70.5323 41.3227 70.4015 41.7166 70.1429 42.0582C69.8875 42.3968 69.532 42.6615 69.0765 42.8523C68.621 43.0431 68.0978 43.1385 67.5069 43.1385C66.639 43.1385 65.9404 42.9569 65.411 42.5938C64.8817 42.2275 64.5662 41.7182 64.4647 41.0657L66.0943 40.9087C66.1681 41.2288 66.3251 41.4704 66.5652 41.6335C66.8052 41.7966 67.1176 41.8782 67.5023 41.8782C67.8993 41.8782 68.2179 41.7966 68.4579 41.6335C68.7011 41.4704 68.8226 41.2688 68.8226 41.0288C68.8226 40.8256 68.7441 40.6579 68.5872 40.5256C68.4333 40.3932 68.1932 40.2917 67.867 40.2209L66.6575 39.967C65.9773 39.8254 65.4741 39.5869 65.1479 39.2514C64.8217 38.9129 64.6601 38.4851 64.6632 37.968C64.6601 37.531 64.7786 37.1525 65.0186 36.8324C65.2618 36.5092 65.5988 36.2599 66.0297 36.0845C66.4636 35.906 66.9637 35.8168 67.53 35.8168C68.361 35.8168 69.015 35.9937 69.492 36.3477C69.9721 36.7016 70.2691 37.1802 70.383 37.7834ZM75.0064 43.1385C74.2985 43.1385 73.6907 42.9831 73.1829 42.6722C72.6781 42.3614 72.2888 41.9321 72.0149 41.3842C71.7441 40.8333 71.6087 40.1993 71.6087 39.4822C71.6087 38.7621 71.7472 38.1265 72.0241 37.5756C72.3011 37.0217 72.692 36.5908 73.1967 36.283C73.7045 35.9722 74.3047 35.8168 74.9972 35.8168C75.5727 35.8168 76.082 35.9229 76.5252 36.1353C76.9715 36.3446 77.3269 36.6416 77.5916 37.0263C77.8563 37.4079 78.0071 37.8542 78.044 38.3651H76.4467C76.3821 38.0234 76.2282 37.7388 75.9851 37.511C75.745 37.2802 75.4234 37.1648 75.0202 37.1648C74.6786 37.1648 74.3786 37.2571 74.12 37.4418C73.8615 37.6233 73.6599 37.8849 73.5153 38.2266C73.3737 38.5682 73.3029 38.9775 73.3029 39.4545C73.3029 39.9377 73.3737 40.3532 73.5153 40.701C73.6568 41.0457 73.8554 41.3119 74.1108 41.4996C74.3693 41.6843 74.6725 41.7766 75.0202 41.7766C75.2665 41.7766 75.4865 41.7305 75.6804 41.6381C75.8774 41.5427 76.042 41.4058 76.1744 41.2273C76.3067 41.0488 76.3975 40.8318 76.4467 40.5763H78.044C78.004 41.078 77.8563 41.5227 77.6009 41.9105C77.3454 42.2952 76.9976 42.5968 76.5575 42.8153C76.1174 43.0308 75.6004 43.1385 75.0064 43.1385ZM83.9358 40.0178V35.9091H85.607V43H83.9866V41.7397H83.9127C83.7527 42.1367 83.4896 42.4614 83.1233 42.7138C82.7602 42.9661 82.3124 43.0923 81.7799 43.0923C81.3152 43.0923 80.9043 42.9892 80.5473 42.783C80.1934 42.5737 79.9164 42.2706 79.7164 41.8736C79.5163 41.4735 79.4163 40.9903 79.4163 40.424V35.9091H81.0874V40.1655C81.0874 40.6148 81.2106 40.9718 81.4568 41.2365C81.703 41.5012 82.0261 41.6335 82.4262 41.6335C82.6724 41.6335 82.911 41.5735 83.1418 41.4535C83.3726 41.3335 83.5619 41.1549 83.7096 40.918C83.8604 40.6779 83.9358 40.3778 83.9358 40.0178ZM88.9966 38.8452V43H87.3255V35.9091H88.9228V37.114H89.0059C89.169 36.717 89.429 36.4015 89.786 36.1676C90.1461 35.9337 90.5908 35.8168 91.1202 35.8168C91.6096 35.8168 92.0358 35.9214 92.399 36.1307C92.7652 36.34 93.0484 36.6431 93.2484 37.0401C93.4515 37.4371 93.5516 37.9188 93.5485 38.4851V43H91.8773V38.7436C91.8773 38.2696 91.7542 37.8988 91.508 37.631C91.2649 37.3633 90.9279 37.2294 90.497 37.2294C90.2046 37.2294 89.9445 37.294 89.7168 37.4233C89.4921 37.5495 89.3152 37.7326 89.1859 37.9727C89.0597 38.2127 88.9966 38.5036 88.9966 38.8452ZM96.9185 38.8452V43H95.2473V33.5455H96.8816V37.114H96.9647C97.1309 36.7139 97.3878 36.3984 97.7356 36.1676C98.0865 35.9337 98.5327 35.8168 99.0744 35.8168C99.5668 35.8168 99.9962 35.9199 100.362 36.1261C100.729 36.3323 101.012 36.6339 101.212 37.0309C101.415 37.4279 101.517 37.9126 101.517 38.4851V43H99.8453V38.7436C99.8453 38.2666 99.7222 37.8957 99.476 37.631C99.2329 37.3633 98.8913 37.2294 98.4512 37.2294C98.1557 37.2294 97.891 37.294 97.6571 37.4233C97.4263 37.5495 97.2447 37.7326 97.1124 37.9727C96.9831 38.2127 96.9185 38.5036 96.9185 38.8452ZM106.313 43.1385C105.621 43.1385 105.02 42.9862 104.513 42.6815C104.005 42.3768 103.611 41.9505 103.331 41.4027C103.054 40.8549 102.915 40.2147 102.915 39.4822C102.915 38.7498 103.054 38.1081 103.331 37.5572C103.611 37.0063 104.005 36.5785 104.513 36.2738C105.02 35.9691 105.621 35.8168 106.313 35.8168C107.006 35.8168 107.606 35.9691 108.113 36.2738C108.621 36.5785 109.014 37.0063 109.291 37.5572C109.571 38.1081 109.711 38.7498 109.711 39.4822C109.711 40.2147 109.571 40.8549 109.291 41.4027C109.014 41.9505 108.621 42.3768 108.113 42.6815C107.606 42.9862 107.006 43.1385 106.313 43.1385ZM106.322 41.7997C106.698 41.7997 107.012 41.6966 107.264 41.4904C107.516 41.2811 107.704 41.0011 107.827 40.6502C107.953 40.2994 108.017 39.9085 108.017 39.4776C108.017 39.0437 107.953 38.6513 107.827 38.3004C107.704 37.9465 107.516 37.6649 107.264 37.4556C107.012 37.2463 106.698 37.1417 106.322 37.1417C105.938 37.1417 105.617 37.2463 105.362 37.4556C105.11 37.6649 104.92 37.9465 104.794 38.3004C104.671 38.6513 104.61 39.0437 104.61 39.4776C104.61 39.9085 104.671 40.2994 104.794 40.6502C104.92 41.0011 105.11 41.2811 105.362 41.4904C105.617 41.6966 105.938 41.7997 106.322 41.7997Z" fill="#B7B4B0"/>
<path d="M35.3438 55C35.2969 54.6042 35.1068 54.2969 34.7734 54.0781C34.4401 53.8594 34.0313 53.75 33.5469 53.75C33.1927 53.75 32.8828 53.8073 32.6172 53.9219C32.3542 54.0365 32.1484 54.194 32 54.3945C31.8542 54.5951 31.7813 54.8229 31.7813 55.0781C31.7813 55.2917 31.832 55.4753 31.9336 55.6289C32.0378 55.7799 32.1706 55.9062 32.332 56.0078C32.4935 56.1068 32.6628 56.1888 32.8398 56.2539C33.0169 56.3164 33.1797 56.3672 33.3281 56.4062L34.1406 56.625C34.349 56.6797 34.5807 56.7552 34.8359 56.8516C35.0938 56.9479 35.3398 57.0794 35.5742 57.2461C35.8112 57.4102 36.0065 57.6211 36.1602 57.8789C36.3138 58.1367 36.3906 58.4531 36.3906 58.8281C36.3906 59.2604 36.2773 59.651 36.0508 60C35.8268 60.349 35.4987 60.6263 35.0664 60.832C34.6367 61.0378 34.1146 61.1406 33.5 61.1406C32.9271 61.1406 32.431 61.0482 32.0117 60.8633C31.5951 60.6784 31.2669 60.4206 31.0273 60.0898C30.7904 59.7591 30.6563 59.375 30.625 58.9375H31.625C31.651 59.2396 31.7526 59.4896 31.9297 59.6875C32.1094 59.8828 32.3359 60.0286 32.6094 60.125C32.8854 60.2187 33.1823 60.2656 33.5 60.2656C33.8698 60.2656 34.2018 60.2057 34.4961 60.0859C34.7904 59.9635 35.0234 59.7943 35.1953 59.5781C35.3672 59.3594 35.4531 59.1042 35.4531 58.8125C35.4531 58.5469 35.3789 58.3307 35.2305 58.1641C35.082 57.9974 34.8867 57.862 34.6445 57.7578C34.4023 57.6536 34.1406 57.5625 33.8594 57.4844L32.875 57.2031C32.25 57.0234 31.7552 56.7669 31.3906 56.4336C31.026 56.1003 30.8438 55.6641 30.8438 55.125C30.8438 54.6771 30.9648 54.2865 31.207 53.9531C31.4518 53.6172 31.7799 53.3568 32.1914 53.1719C32.6055 52.9844 33.0677 52.8906 33.5781 52.8906C34.0938 52.8906 34.5521 52.9831 34.9531 53.168C35.3542 53.3503 35.6719 53.6003 35.9062 53.918C36.1432 54.2357 36.2682 54.5964 36.2813 55H35.3438ZM40.2959 61.125C39.7542 61.125 39.279 60.9961 38.8701 60.7383C38.4639 60.4805 38.1462 60.1198 37.917 59.6562C37.6904 59.1927 37.5771 58.651 37.5771 58.0312C37.5771 57.4062 37.6904 56.8607 37.917 56.3945C38.1462 55.9284 38.4639 55.5664 38.8701 55.3086C39.279 55.0508 39.7542 54.9219 40.2959 54.9219C40.8376 54.9219 41.3115 55.0508 41.7178 55.3086C42.1266 55.5664 42.4443 55.9284 42.6709 56.3945C42.9001 56.8607 43.0146 57.4062 43.0146 58.0312C43.0146 58.651 42.9001 59.1927 42.6709 59.6562C42.4443 60.1198 42.1266 60.4805 41.7178 60.7383C41.3115 60.9961 40.8376 61.125 40.2959 61.125ZM40.2959 60.2969C40.7074 60.2969 41.0459 60.1914 41.3115 59.9805C41.5771 59.7695 41.7738 59.4922 41.9014 59.1484C42.029 58.8047 42.0928 58.4323 42.0928 58.0312C42.0928 57.6302 42.029 57.2565 41.9014 56.9102C41.7738 56.5638 41.5771 56.2839 41.3115 56.0703C41.0459 55.8568 40.7074 55.75 40.2959 55.75C39.8844 55.75 39.5459 55.8568 39.2803 56.0703C39.0146 56.2839 38.818 56.5638 38.6904 56.9102C38.5628 57.2565 38.499 57.6302 38.499 58.0312C38.499 58.4323 38.5628 58.8047 38.6904 59.1484C38.818 59.4922 39.0146 59.7695 39.2803 59.9805C39.5459 60.1914 39.8844 60.2969 40.2959 60.2969ZM39.874 54.1875L40.8271 52.375H41.9053L40.6865 54.1875H39.874ZM52.4219 55L50.2031 61H49.2656L47.0469 55H48.0469L49.7031 59.7812H49.7656L51.4219 55H52.4219ZM53.6387 61V55H54.5605V61H53.6387ZM54.1074 54C53.9277 54 53.7728 53.9388 53.6426 53.8164C53.515 53.694 53.4512 53.5469 53.4512 53.375C53.4512 53.2031 53.515 53.056 53.6426 52.9336C53.7728 52.8112 53.9277 52.75 54.1074 52.75C54.2871 52.75 54.4408 52.8112 54.5684 52.9336C54.6986 53.056 54.7637 53.2031 54.7637 53.375C54.7637 53.5469 54.6986 53.694 54.5684 53.8164C54.4408 53.9388 54.2871 54 54.1074 54ZM60.499 56.3437L59.6709 56.5781C59.6188 56.4401 59.542 56.306 59.4404 56.1758C59.3415 56.043 59.2061 55.9336 59.0342 55.8477C58.8623 55.7617 58.6423 55.7187 58.374 55.7187C58.0068 55.7187 57.7008 55.8034 57.4561 55.9727C57.2139 56.1393 57.0928 56.3516 57.0928 56.6094C57.0928 56.8385 57.1761 57.0195 57.3428 57.1523C57.5094 57.2852 57.7699 57.3958 58.124 57.4844L59.0146 57.7031C59.5511 57.8333 59.9508 58.0326 60.2139 58.3008C60.4769 58.5664 60.6084 58.9089 60.6084 59.3281C60.6084 59.6719 60.5094 59.9792 60.3115 60.25C60.1162 60.5208 59.8428 60.7344 59.4912 60.8906C59.1396 61.0469 58.7308 61.125 58.2646 61.125C57.6527 61.125 57.1462 60.9922 56.7451 60.7266C56.3441 60.4609 56.0902 60.0729 55.9834 59.5625L56.8584 59.3437C56.9417 59.6667 57.0993 59.9089 57.3311 60.0703C57.5654 60.2318 57.8714 60.3125 58.249 60.3125C58.6787 60.3125 59.0199 60.2214 59.2725 60.0391C59.5277 59.8542 59.6553 59.6328 59.6553 59.375C59.6553 59.1667 59.5824 58.9922 59.4365 58.8516C59.2907 58.7083 59.0667 58.6016 58.7646 58.5312L57.7646 58.2969C57.2152 58.1667 56.8115 57.9648 56.5537 57.6914C56.2985 57.4154 56.1709 57.0703 56.1709 56.6562C56.1709 56.3177 56.266 56.0182 56.4561 55.7578C56.6488 55.4974 56.9105 55.293 57.2412 55.1445C57.5745 54.9961 57.9521 54.9219 58.374 54.9219C58.9678 54.9219 59.4339 55.0521 59.7725 55.3125C60.1136 55.5729 60.3558 55.9167 60.499 56.3437ZM61.9961 61V55H62.918V61H61.9961ZM62.043 54.1875L62.9961 52.375H64.0742L62.8555 54.1875H62.043ZM69.5127 55L67.2939 61H66.3564L64.1377 55H65.1377L66.7939 59.7812H66.8564L68.5127 55H69.5127ZM73.0303 61.125C72.4521 61.125 71.9535 60.9974 71.5342 60.7422C71.1175 60.4844 70.7959 60.125 70.5693 59.6641C70.3454 59.2005 70.2334 58.6615 70.2334 58.0469C70.2334 57.4323 70.3454 56.8906 70.5693 56.4219C70.7959 55.9505 71.111 55.5833 71.5146 55.3203C71.9209 55.0547 72.3949 54.9219 72.9365 54.9219C73.249 54.9219 73.5576 54.974 73.8623 55.0781C74.167 55.1823 74.4443 55.3516 74.6943 55.5859C74.9443 55.8177 75.1436 56.125 75.292 56.5078C75.4404 56.8906 75.5146 57.362 75.5146 57.9219V58.3125H70.8896V57.5156H74.5771C74.5771 57.1771 74.5094 56.875 74.374 56.6094C74.2412 56.3437 74.0511 56.1341 73.8037 55.9805C73.5589 55.8268 73.2699 55.75 72.9365 55.75C72.5693 55.75 72.2516 55.8411 71.9834 56.0234C71.7178 56.2031 71.5133 56.4375 71.3701 56.7266C71.2269 57.0156 71.1553 57.3255 71.1553 57.6562V58.1875C71.1553 58.6406 71.2334 59.0247 71.3896 59.3398C71.5485 59.6523 71.7686 59.8906 72.0498 60.0547C72.3311 60.2161 72.6579 60.2969 73.0303 60.2969C73.2725 60.2969 73.4912 60.263 73.6865 60.1953C73.8844 60.125 74.055 60.0208 74.1982 59.8828C74.3415 59.7422 74.4521 59.5677 74.5303 59.3594L75.4209 59.6094C75.3271 59.9115 75.1696 60.1771 74.9482 60.4062C74.7269 60.6328 74.4535 60.8099 74.1279 60.9375C73.8024 61.0625 73.4365 61.125 73.0303 61.125ZM77.8389 53V61H76.917V53H77.8389ZM82.6211 63.25V55H83.5117V55.9531H83.6211C83.6888 55.849 83.7826 55.7161 83.9023 55.5547C84.0247 55.3906 84.1992 55.2448 84.4258 55.1172C84.6549 54.987 84.9648 54.9219 85.3555 54.9219C85.8607 54.9219 86.306 55.0482 86.6914 55.3008C87.0768 55.5534 87.3776 55.9115 87.5938 56.375C87.8099 56.8385 87.918 57.3854 87.918 58.0156C87.918 58.651 87.8099 59.2018 87.5938 59.668C87.3776 60.1315 87.0781 60.4909 86.6953 60.7461C86.3125 60.9987 85.8711 61.125 85.3711 61.125C84.9857 61.125 84.6771 61.0612 84.4453 60.9336C84.2135 60.8034 84.0352 60.6562 83.9102 60.4922C83.7852 60.3255 83.6888 60.1875 83.6211 60.0781H83.543V63.25H82.6211ZM83.5273 58C83.5273 58.4531 83.5937 58.8529 83.7266 59.1992C83.8594 59.543 84.0534 59.8125 84.3086 60.0078C84.5638 60.2005 84.8763 60.2969 85.2461 60.2969C85.6315 60.2969 85.9531 60.1953 86.2109 59.9922C86.4714 59.7865 86.6667 59.5104 86.7969 59.1641C86.9297 58.8151 86.9961 58.4271 86.9961 58C86.9961 57.5781 86.931 57.1979 86.8008 56.8594C86.6732 56.5182 86.4792 56.2487 86.2188 56.0508C85.9609 55.8503 85.6367 55.75 85.2461 55.75C84.8711 55.75 84.556 55.8451 84.3008 56.0352C84.0456 56.2227 83.8529 56.4857 83.7227 56.8242C83.5924 57.1602 83.5273 57.5521 83.5273 58ZM91.0898 61.1406C90.7096 61.1406 90.3646 61.069 90.0547 60.9258C89.7448 60.7799 89.4987 60.5703 89.3164 60.2969C89.1341 60.0208 89.043 59.6875 89.043 59.2969C89.043 58.9531 89.1107 58.6745 89.2461 58.4609C89.3815 58.2448 89.5625 58.0755 89.7891 57.9531C90.0156 57.8307 90.2656 57.7396 90.5391 57.6797C90.8151 57.6172 91.0924 57.5677 91.3711 57.5313C91.7357 57.4844 92.0313 57.4492 92.2578 57.4258C92.487 57.3997 92.6536 57.3568 92.7578 57.2969C92.8646 57.237 92.918 57.1328 92.918 56.9844V56.9531C92.918 56.5677 92.8125 56.2682 92.6016 56.0547C92.3932 55.8411 92.0768 55.7344 91.6523 55.7344C91.2122 55.7344 90.8672 55.8307 90.6172 56.0234C90.3672 56.2161 90.1914 56.4219 90.0898 56.6406L89.2148 56.3281C89.3711 55.9635 89.5794 55.6797 89.8398 55.4766C90.1029 55.2708 90.3893 55.1276 90.6992 55.0469C91.0117 54.9635 91.319 54.9219 91.6211 54.9219C91.8138 54.9219 92.0352 54.9453 92.2852 54.9922C92.5378 55.0365 92.7813 55.1289 93.0156 55.2695C93.2526 55.4102 93.4492 55.6224 93.6055 55.9062C93.7617 56.1901 93.8398 56.5703 93.8398 57.0469V61H92.918V60.1875H92.8711C92.8086 60.3177 92.7044 60.457 92.5586 60.6055C92.4128 60.7539 92.2188 60.8802 91.9766 60.9844C91.7344 61.0885 91.4388 61.1406 91.0898 61.1406ZM91.2305 60.3125C91.5951 60.3125 91.9023 60.2409 92.1523 60.0977C92.4049 59.9544 92.5951 59.7695 92.7227 59.543C92.8529 59.3164 92.918 59.0781 92.918 58.8281V57.9844C92.8789 58.0312 92.793 58.0742 92.6602 58.1133C92.5299 58.1497 92.3789 58.1823 92.207 58.2109C92.0378 58.237 91.8724 58.2604 91.7109 58.2812C91.5521 58.2995 91.4232 58.3151 91.3242 58.3281C91.0846 58.3594 90.8607 58.4102 90.6523 58.4805C90.4466 58.5482 90.2799 58.651 90.1523 58.7891C90.0273 58.9245 89.9648 59.1094 89.9648 59.3437C89.9648 59.6641 90.0833 59.9062 90.3203 60.0703C90.5599 60.2318 90.8633 60.3125 91.2305 60.3125ZM95.5225 61V55H96.4131V55.9062H96.4756C96.585 55.6094 96.7829 55.3685 97.0693 55.1836C97.3558 54.9987 97.6787 54.9062 98.0381 54.9062C98.1058 54.9062 98.1904 54.9076 98.292 54.9102C98.3936 54.9128 98.4704 54.9167 98.5225 54.9219V55.8594C98.4912 55.8516 98.4196 55.8398 98.3076 55.8242C98.1982 55.806 98.0824 55.7969 97.96 55.7969C97.6683 55.7969 97.4079 55.8581 97.1787 55.9805C96.9521 56.1003 96.7725 56.2669 96.6396 56.4805C96.5094 56.6914 96.4443 56.9323 96.4443 57.2031V61H95.5225ZM101.381 61.1406C101.001 61.1406 100.656 61.069 100.346 60.9258C100.036 60.7799 99.7897 60.5703 99.6074 60.2969C99.4251 60.0208 99.334 59.6875 99.334 59.2969C99.334 58.9531 99.4017 58.6745 99.5371 58.4609C99.6725 58.2448 99.8535 58.0755 100.08 57.9531C100.307 57.8307 100.557 57.7396 100.83 57.6797C101.106 57.6172 101.383 57.5677 101.662 57.5313C102.027 57.4844 102.322 57.4492 102.549 57.4258C102.778 57.3997 102.945 57.3568 103.049 57.2969C103.156 57.237 103.209 57.1328 103.209 56.9844V56.9531C103.209 56.5677 103.104 56.2682 102.893 56.0547C102.684 55.8411 102.368 55.7344 101.943 55.7344C101.503 55.7344 101.158 55.8307 100.908 56.0234C100.658 56.2161 100.482 56.4219 100.381 56.6406L99.5059 56.3281C99.6621 55.9635 99.8704 55.6797 100.131 55.4766C100.394 55.2708 100.68 55.1276 100.99 55.0469C101.303 54.9635 101.61 54.9219 101.912 54.9219C102.105 54.9219 102.326 54.9453 102.576 54.9922C102.829 55.0365 103.072 55.1289 103.307 55.2695C103.544 55.4102 103.74 55.6224 103.896 55.9062C104.053 56.1901 104.131 56.5703 104.131 57.0469V61H103.209V60.1875H103.162C103.1 60.3177 102.995 60.457 102.85 60.6055C102.704 60.7539 102.51 60.8802 102.268 60.9844C102.025 61.0885 101.73 61.1406 101.381 61.1406ZM101.521 60.3125C101.886 60.3125 102.193 60.2409 102.443 60.0977C102.696 59.9544 102.886 59.7695 103.014 59.543C103.144 59.3164 103.209 59.0781 103.209 58.8281V57.9844C103.17 58.0312 103.084 58.0742 102.951 58.1133C102.821 58.1497 102.67 58.1823 102.498 58.2109C102.329 58.237 102.163 58.2604 102.002 58.2812C101.843 58.2995 101.714 58.3151 101.615 58.3281C101.376 58.3594 101.152 58.4102 100.943 58.4805C100.738 58.5482 100.571 58.651 100.443 58.7891C100.318 58.9245 100.256 59.1094 100.256 59.3437C100.256 59.6641 100.374 59.9062 100.611 60.0703C100.851 60.2318 101.154 60.3125 101.521 60.3125ZM113.813 55L111.595 61H110.657L108.438 55H109.438L111.095 59.7812H111.157L112.813 55H113.813ZM117.253 61.125C116.711 61.125 116.236 60.9961 115.827 60.7383C115.421 60.4805 115.103 60.1198 114.874 59.6562C114.647 59.1927 114.534 58.651 114.534 58.0312C114.534 57.4062 114.647 56.8607 114.874 56.3945C115.103 55.9284 115.421 55.5664 115.827 55.3086C116.236 55.0508 116.711 54.9219 117.253 54.9219C117.795 54.9219 118.269 55.0508 118.675 55.3086C119.084 55.5664 119.401 55.9284 119.628 56.3945C119.857 56.8607 119.972 57.4062 119.972 58.0312C119.972 58.651 119.857 59.1927 119.628 59.6562C119.401 60.1198 119.084 60.4805 118.675 60.7383C118.269 60.9961 117.795 61.125 117.253 61.125ZM117.253 60.2969C117.664 60.2969 118.003 60.1914 118.269 59.9805C118.534 59.7695 118.731 59.4922 118.858 59.1484C118.986 58.8047 119.05 58.4323 119.05 58.0312C119.05 57.6302 118.986 57.2565 118.858 56.9102C118.731 56.5638 118.534 56.2839 118.269 56.0703C118.003 55.8568 117.664 55.75 117.253 55.75C116.841 55.75 116.503 55.8568 116.237 56.0703C115.972 56.2839 115.775 56.5638 115.647 56.9102C115.52 57.2565 115.456 57.6302 115.456 58.0312C115.456 58.4323 115.52 58.8047 115.647 59.1484C115.775 59.4922 115.972 59.7695 116.237 59.9805C116.503 60.1914 116.841 60.2969 117.253 60.2969ZM123.816 61.125C123.254 61.125 122.77 60.9922 122.363 60.7266C121.957 60.4609 121.645 60.0951 121.426 59.6289C121.207 59.1628 121.098 58.6302 121.098 58.0312C121.098 57.4219 121.21 56.8841 121.434 56.418C121.66 55.9492 121.975 55.5833 122.379 55.3203C122.785 55.0547 123.259 54.9219 123.801 54.9219C124.223 54.9219 124.603 55 124.941 55.1562C125.28 55.3125 125.557 55.5312 125.773 55.8125C125.99 56.0937 126.124 56.4219 126.176 56.7969H125.254C125.184 56.5234 125.027 56.2812 124.785 56.0703C124.546 55.8568 124.223 55.75 123.816 55.75C123.457 55.75 123.142 55.8437 122.871 56.0312C122.603 56.2161 122.393 56.4779 122.242 56.8164C122.094 57.1523 122.02 57.5469 122.02 58C122.02 58.4635 122.092 58.8672 122.238 59.2109C122.387 59.5547 122.595 59.8216 122.863 60.0117C123.134 60.2018 123.452 60.2969 123.816 60.2969C124.056 60.2969 124.273 60.2552 124.469 60.1719C124.664 60.0885 124.829 59.9688 124.965 59.8125C125.1 59.6562 125.197 59.4687 125.254 59.25H126.176C126.124 59.6042 125.995 59.9232 125.789 60.207C125.586 60.4883 125.316 60.7122 124.98 60.8789C124.647 61.043 124.259 61.125 123.816 61.125ZM130.039 61.125C129.461 61.125 128.962 60.9974 128.543 60.7422C128.126 60.4844 127.805 60.125 127.578 59.6641C127.354 59.2005 127.242 58.6615 127.242 58.0469C127.242 57.4323 127.354 56.8906 127.578 56.4219C127.805 55.9505 128.12 55.5833 128.523 55.3203C128.93 55.0547 129.404 54.9219 129.945 54.9219C130.258 54.9219 130.566 54.974 130.871 55.0781C131.176 55.1823 131.453 55.3516 131.703 55.5859C131.953 55.8177 132.152 56.125 132.301 56.5078C132.449 56.8906 132.523 57.362 132.523 57.9219V58.3125H127.898V57.5156H131.586C131.586 57.1771 131.518 56.875 131.383 56.6094C131.25 56.3437 131.06 56.1341 130.813 55.9805C130.568 55.8268 130.279 55.75 129.945 55.75C129.578 55.75 129.26 55.8411 128.992 56.0234C128.727 56.2031 128.522 56.4375 128.379 56.7266C128.236 57.0156 128.164 57.3255 128.164 57.6562V58.1875C128.164 58.6406 128.242 59.0247 128.398 59.3398C128.557 59.6523 128.777 59.8906 129.059 60.0547C129.34 60.2161 129.667 60.2969 130.039 60.2969C130.281 60.2969 130.5 60.263 130.695 60.1953C130.893 60.125 131.064 60.0208 131.207 59.8828C131.35 59.7422 131.461 59.5677 131.539 59.3594L132.43 59.6094C132.336 59.9115 132.178 60.1771 131.957 60.4062C131.736 60.6328 131.462 60.8099 131.137 60.9375C130.811 61.0625 130.445 61.125 130.039 61.125ZM130.711 54.2812L129.898 53.1875L129.086 54.2812H128.211V54.2187L129.477 52.5937H130.32L131.586 54.2187V54.2812H130.711Z" fill="#6B6860"/>
<rect x="21" y="94" width="122" height="51" rx="3" fill="#0E0E0E"/>
<rect x="21" y="94" width="122" height="51" rx="3" stroke="#E85C2F" stroke-width="2"/>
<rect x="30" y="106" width="10" height="10" rx="5" fill="#E85C2F"/>
<path d="M48.9325 116V106.545H52.478C53.2043 106.545 53.8137 106.681 54.3061 106.952C54.8016 107.223 55.1755 107.595 55.4279 108.069C55.6834 108.54 55.8111 109.075 55.8111 109.675C55.8111 110.282 55.6834 110.82 55.4279 111.291C55.1725 111.762 54.7955 112.133 54.2969 112.404C53.7983 112.672 53.1843 112.805 52.4549 112.805H50.1051V111.397H52.2241C52.6488 111.397 52.9966 111.324 53.2674 111.176C53.5382 111.028 53.7383 110.825 53.8675 110.566C53.9999 110.308 54.0661 110.011 54.0661 109.675C54.0661 109.34 53.9999 109.045 53.8675 108.789C53.7383 108.534 53.5367 108.335 53.2628 108.194C52.992 108.049 52.6426 107.977 52.2148 107.977H50.6452V116H48.9325ZM61.7444 113.018V108.909H63.4156V116H61.7952V114.74H61.7213C61.5613 115.137 61.2981 115.461 60.9319 115.714C60.5687 115.966 60.1209 116.092 59.5885 116.092C59.1238 116.092 58.7129 115.989 58.3559 115.783C58.002 115.574 57.725 115.271 57.5249 114.874C57.3249 114.473 57.2249 113.99 57.2249 113.424V108.909H58.896V113.165C58.896 113.615 59.0191 113.972 59.2654 114.237C59.5116 114.501 59.8347 114.634 60.2348 114.634C60.481 114.634 60.7195 114.574 60.9504 114.453C61.1812 114.333 61.3705 114.155 61.5182 113.918C61.669 113.678 61.7444 113.378 61.7444 113.018ZM65.2079 116V106.545H66.8791V110.082H66.9483C67.0345 109.909 67.1561 109.726 67.313 109.532C67.47 109.335 67.6824 109.168 67.9501 109.029C68.2179 108.888 68.5595 108.817 68.975 108.817C69.5228 108.817 70.0167 108.957 70.4569 109.237C70.9 109.514 71.2509 109.925 71.5094 110.469C71.771 111.011 71.9018 111.676 71.9018 112.464C71.9018 113.242 71.7741 113.904 71.5186 114.449C71.2632 114.994 70.9154 115.409 70.4753 115.695C70.0352 115.982 69.5366 116.125 68.9796 116.125C68.5733 116.125 68.2363 116.057 67.9686 115.922C67.7008 115.786 67.4854 115.623 67.3223 115.432C67.1622 115.238 67.0376 115.055 66.9483 114.883H66.8514V116H65.2079ZM66.8468 112.455C66.8468 112.913 66.9114 113.315 67.0407 113.659C67.173 114.004 67.3623 114.273 67.6085 114.467C67.8578 114.658 68.1594 114.754 68.5133 114.754C68.8826 114.754 69.1919 114.655 69.4412 114.458C69.6905 114.258 69.8783 113.986 70.0044 113.641C70.1337 113.293 70.1983 112.898 70.1983 112.455C70.1983 112.014 70.1352 111.624 70.0091 111.282C69.8829 110.94 69.6951 110.673 69.4458 110.479C69.1966 110.285 68.8857 110.188 68.5133 110.188C68.1563 110.188 67.8532 110.282 67.6039 110.469C67.3546 110.657 67.1653 110.92 67.036 111.259C66.9099 111.597 66.8468 111.996 66.8468 112.455ZM74.9937 106.545V116H73.3225V106.545H74.9937ZM76.7122 116V108.909H78.3833V116H76.7122ZM77.5524 107.903C77.2877 107.903 77.06 107.815 76.8691 107.64C76.6783 107.461 76.5829 107.247 76.5829 106.998C76.5829 106.746 76.6783 106.532 76.8691 106.356C77.06 106.178 77.2877 106.088 77.5524 106.088C77.8201 106.088 78.0479 106.178 78.2356 106.356C78.4264 106.532 78.5218 106.746 78.5218 106.998C78.5218 107.247 78.4264 107.461 78.2356 107.64C78.0479 107.815 77.8201 107.903 77.5524 107.903ZM83.1949 116.138C82.487 116.138 81.8792 115.983 81.3714 115.672C80.8666 115.361 80.4773 114.932 80.2034 114.384C79.9326 113.833 79.7971 113.199 79.7971 112.482C79.7971 111.762 79.9356 111.127 80.2126 110.576C80.4896 110.022 80.8805 109.591 81.3852 109.283C81.893 108.972 82.4932 108.817 83.1856 108.817C83.7612 108.817 84.2705 108.923 84.7137 109.135C85.1599 109.345 85.5154 109.642 85.7801 110.026C86.0448 110.408 86.1956 110.854 86.2325 111.365H84.6352C84.5706 111.023 84.4167 110.739 84.1736 110.511C83.9335 110.28 83.6119 110.165 83.2087 110.165C82.8671 110.165 82.567 110.257 82.3085 110.442C82.05 110.623 81.8484 110.885 81.7037 111.227C81.5622 111.568 81.4914 111.978 81.4914 112.455C81.4914 112.938 81.5622 113.353 81.7037 113.701C81.8453 114.046 82.0438 114.312 82.2993 114.5C82.5578 114.684 82.8609 114.777 83.2087 114.777C83.4549 114.777 83.675 114.73 83.8689 114.638C84.0658 114.543 84.2305 114.406 84.3628 114.227C84.4952 114.049 84.586 113.832 84.6352 113.576H86.2325C86.1925 114.078 86.0448 114.523 85.7893 114.911C85.5339 115.295 85.1861 115.597 84.746 115.815C84.3059 116.031 83.7889 116.138 83.1949 116.138ZM89.6452 116.143C89.1959 116.143 88.7912 116.063 88.4311 115.903C88.0741 115.74 87.791 115.5 87.5817 115.183C87.3755 114.866 87.2724 114.475 87.2724 114.01C87.2724 113.61 87.3462 113.279 87.494 113.018C87.6417 112.756 87.8433 112.547 88.0987 112.39C88.3542 112.233 88.6419 112.114 88.962 112.034C89.2852 111.951 89.6191 111.891 89.9638 111.854C90.3793 111.811 90.7163 111.773 90.9748 111.739C91.2333 111.702 91.421 111.647 91.538 111.573C91.658 111.496 91.718 111.377 91.718 111.217V111.19C91.718 110.842 91.6149 110.573 91.4087 110.382C91.2025 110.191 90.9055 110.096 90.5178 110.096C90.1084 110.096 89.7837 110.185 89.5437 110.363C89.3067 110.542 89.1467 110.753 89.0636 110.996L87.5032 110.774C87.6263 110.343 87.8294 109.983 88.1126 109.694C88.3957 109.402 88.742 109.183 89.1513 109.038C89.5606 108.891 90.013 108.817 90.5085 108.817C90.8501 108.817 91.1902 108.857 91.5288 108.937C91.8673 109.017 92.1766 109.149 92.4567 109.334C92.7367 109.515 92.9614 109.763 93.1307 110.077C93.303 110.391 93.3892 110.783 93.3892 111.254V116H91.7827V115.026H91.7273C91.6257 115.223 91.4826 115.408 91.2979 115.58C91.1164 115.749 90.8871 115.886 90.6101 115.991C90.3362 116.092 90.0146 116.143 89.6452 116.143ZM90.0792 114.915C90.4147 114.915 90.7055 114.849 90.9517 114.717C91.1979 114.581 91.3872 114.403 91.5195 114.181C91.6549 113.96 91.7227 113.718 91.7227 113.456V112.621C91.6703 112.664 91.5811 112.704 91.4549 112.741C91.3318 112.778 91.1933 112.81 91.0394 112.838C90.8855 112.865 90.7332 112.89 90.5824 112.912C90.4316 112.933 90.3008 112.952 90.19 112.967C89.9407 113.001 89.7176 113.056 89.5206 113.133C89.3236 113.21 89.1682 113.318 89.0543 113.456C88.9405 113.592 88.8835 113.767 88.8835 113.983C88.8835 114.29 88.9959 114.523 89.2205 114.68C89.4452 114.837 89.7314 114.915 90.0792 114.915ZM97.701 116.125C97.1439 116.125 96.6454 115.982 96.2053 115.695C95.7652 115.409 95.4174 114.994 95.1619 114.449C94.9065 113.904 94.7788 113.242 94.7788 112.464C94.7788 111.676 94.908 111.011 95.1665 110.469C95.4281 109.925 95.7805 109.514 96.2237 109.237C96.6669 108.957 97.1609 108.817 97.7056 108.817C98.1211 108.817 98.4627 108.888 98.7305 109.029C98.9982 109.168 99.2106 109.335 99.3675 109.532C99.5245 109.726 99.6461 109.909 99.7322 110.082H99.8015V106.545H101.477V116H99.8338V114.883H99.7322C99.6461 115.055 99.5214 115.238 99.3583 115.432C99.1952 115.623 98.9798 115.786 98.712 115.922C98.4442 116.057 98.1072 116.125 97.701 116.125ZM98.1673 114.754C98.5212 114.754 98.8228 114.658 99.0721 114.467C99.3214 114.273 99.5107 114.004 99.6399 113.659C99.7692 113.315 99.8338 112.913 99.8338 112.455C99.8338 111.996 99.7692 111.597 99.6399 111.259C99.5137 110.92 99.326 110.657 99.0767 110.469C98.8305 110.282 98.5273 110.188 98.1673 110.188C97.7949 110.188 97.484 110.285 97.2347 110.479C96.9854 110.673 96.7977 110.94 96.6715 111.282C96.5453 111.624 96.4822 112.014 96.4822 112.455C96.4822 112.898 96.5453 113.293 96.6715 113.641C96.8008 113.986 96.9901 114.258 97.2393 114.458C97.4917 114.655 97.801 114.754 98.1673 114.754ZM106.351 116.138C105.659 116.138 105.059 115.986 104.551 115.681C104.043 115.377 103.649 114.951 103.369 114.403C103.092 113.855 102.953 113.215 102.953 112.482C102.953 111.75 103.092 111.108 103.369 110.557C103.649 110.006 104.043 109.578 104.551 109.274C105.059 108.969 105.659 108.817 106.351 108.817C107.044 108.817 107.644 108.969 108.152 109.274C108.659 109.578 109.052 110.006 109.329 110.557C109.609 111.108 109.749 111.75 109.749 112.482C109.749 113.215 109.609 113.855 109.329 114.403C109.052 114.951 108.659 115.377 108.152 115.681C107.644 115.986 107.044 116.138 106.351 116.138ZM106.36 114.8C106.736 114.8 107.05 114.697 107.302 114.49C107.554 114.281 107.742 114.001 107.865 113.65C107.992 113.299 108.055 112.908 108.055 112.478C108.055 112.044 107.992 111.651 107.865 111.3C107.742 110.946 107.554 110.665 107.302 110.456C107.05 110.246 106.736 110.142 106.36 110.142C105.976 110.142 105.656 110.246 105.4 110.456C105.148 110.665 104.958 110.946 104.832 111.3C104.709 111.651 104.648 112.044 104.648 112.478C104.648 112.908 104.709 113.299 104.832 113.65C104.958 114.001 105.148 114.281 105.4 114.49C105.656 114.697 105.976 114.8 106.36 114.8Z" fill="#F0EDE6"/>
<path d="M35.3438 128C35.2969 127.604 35.1068 127.297 34.7734 127.078C34.4401 126.859 34.0313 126.75 33.5469 126.75C33.1927 126.75 32.8828 126.807 32.6172 126.922C32.3542 127.036 32.1484 127.194 32 127.395C31.8542 127.595 31.7813 127.823 31.7813 128.078C31.7813 128.292 31.832 128.475 31.9336 128.629C32.0378 128.78 32.1706 128.906 32.332 129.008C32.4935 129.107 32.6628 129.189 32.8398 129.254C33.0169 129.316 33.1797 129.367 33.3281 129.406L34.1406 129.625C34.349 129.68 34.5807 129.755 34.8359 129.852C35.0938 129.948 35.3398 130.079 35.5742 130.246C35.8112 130.41 36.0065 130.621 36.1602 130.879C36.3138 131.137 36.3906 131.453 36.3906 131.828C36.3906 132.26 36.2773 132.651 36.0508 133C35.8268 133.349 35.4987 133.626 35.0664 133.832C34.6367 134.038 34.1146 134.141 33.5 134.141C32.9271 134.141 32.431 134.048 32.0117 133.863C31.5951 133.678 31.2669 133.421 31.0273 133.09C30.7904 132.759 30.6563 132.375 30.625 131.938H31.625C31.651 132.24 31.7526 132.49 31.9297 132.687C32.1094 132.883 32.3359 133.029 32.6094 133.125C32.8854 133.219 33.1823 133.266 33.5 133.266C33.8698 133.266 34.2018 133.206 34.4961 133.086C34.7904 132.964 35.0234 132.794 35.1953 132.578C35.3672 132.359 35.4531 132.104 35.4531 131.812C35.4531 131.547 35.3789 131.331 35.2305 131.164C35.082 130.997 34.8867 130.862 34.6445 130.758C34.4023 130.654 34.1406 130.562 33.8594 130.484L32.875 130.203C32.25 130.023 31.7552 129.767 31.3906 129.434C31.026 129.1 30.8438 128.664 30.8438 128.125C30.8438 127.677 30.9648 127.286 31.207 126.953C31.4518 126.617 31.7799 126.357 32.1914 126.172C32.6055 125.984 33.0677 125.891 33.5781 125.891C34.0938 125.891 34.5521 125.983 34.9531 126.168C35.3542 126.35 35.6719 126.6 35.9062 126.918C36.1432 127.236 36.2682 127.596 36.2813 128H35.3438ZM40.2959 134.125C39.7542 134.125 39.279 133.996 38.8701 133.738C38.4639 133.48 38.1462 133.12 37.917 132.656C37.6904 132.193 37.5771 131.651 37.5771 131.031C37.5771 130.406 37.6904 129.861 37.917 129.395C38.1462 128.928 38.4639 128.566 38.8701 128.309C39.279 128.051 39.7542 127.922 40.2959 127.922C40.8376 127.922 41.3115 128.051 41.7178 128.309C42.1266 128.566 42.4443 128.928 42.6709 129.395C42.9001 129.861 43.0146 130.406 43.0146 131.031C43.0146 131.651 42.9001 132.193 42.6709 132.656C42.4443 133.12 42.1266 133.48 41.7178 133.738C41.3115 133.996 40.8376 134.125 40.2959 134.125ZM40.2959 133.297C40.7074 133.297 41.0459 133.191 41.3115 132.98C41.5771 132.77 41.7738 132.492 41.9014 132.148C42.029 131.805 42.0928 131.432 42.0928 131.031C42.0928 130.63 42.029 130.257 41.9014 129.91C41.7738 129.564 41.5771 129.284 41.3115 129.07C41.0459 128.857 40.7074 128.75 40.2959 128.75C39.8844 128.75 39.5459 128.857 39.2803 129.07C39.0146 129.284 38.818 129.564 38.6904 129.91C38.5628 130.257 38.499 130.63 38.499 131.031C38.499 131.432 38.5628 131.805 38.6904 132.148C38.818 132.492 39.0146 132.77 39.2803 132.98C39.5459 133.191 39.8844 133.297 40.2959 133.297ZM39.874 127.187L40.8271 125.375H41.9053L40.6865 127.187H39.874ZM52.4219 128L50.2031 134H49.2656L47.0469 128H48.0469L49.7031 132.781H49.7656L51.4219 128H52.4219ZM53.6387 134V128H54.5605V134H53.6387ZM54.1074 127C53.9277 127 53.7728 126.939 53.6426 126.816C53.515 126.694 53.4512 126.547 53.4512 126.375C53.4512 126.203 53.515 126.056 53.6426 125.934C53.7728 125.811 53.9277 125.75 54.1074 125.75C54.2871 125.75 54.4408 125.811 54.5684 125.934C54.6986 126.056 54.7637 126.203 54.7637 126.375C54.7637 126.547 54.6986 126.694 54.5684 126.816C54.4408 126.939 54.2871 127 54.1074 127ZM60.499 129.344L59.6709 129.578C59.6188 129.44 59.542 129.306 59.4404 129.176C59.3415 129.043 59.2061 128.934 59.0342 128.848C58.8623 128.762 58.6423 128.719 58.374 128.719C58.0068 128.719 57.7008 128.803 57.4561 128.973C57.2139 129.139 57.0928 129.352 57.0928 129.609C57.0928 129.839 57.1761 130.02 57.3428 130.152C57.5094 130.285 57.7699 130.396 58.124 130.484L59.0146 130.703C59.5511 130.833 59.9508 131.033 60.2139 131.301C60.4769 131.566 60.6084 131.909 60.6084 132.328C60.6084 132.672 60.5094 132.979 60.3115 133.25C60.1162 133.521 59.8428 133.734 59.4912 133.891C59.1396 134.047 58.7308 134.125 58.2646 134.125C57.6527 134.125 57.1462 133.992 56.7451 133.727C56.3441 133.461 56.0902 133.073 55.9834 132.562L56.8584 132.344C56.9417 132.667 57.0993 132.909 57.3311 133.07C57.5654 133.232 57.8714 133.312 58.249 133.312C58.6787 133.312 59.0199 133.221 59.2725 133.039C59.5277 132.854 59.6553 132.633 59.6553 132.375C59.6553 132.167 59.5824 131.992 59.4365 131.852C59.2907 131.708 59.0667 131.602 58.7646 131.531L57.7646 131.297C57.2152 131.167 56.8115 130.965 56.5537 130.691C56.2985 130.415 56.1709 130.07 56.1709 129.656C56.1709 129.318 56.266 129.018 56.4561 128.758C56.6488 128.497 56.9105 128.293 57.2412 128.145C57.5745 127.996 57.9521 127.922 58.374 127.922C58.9678 127.922 59.4339 128.052 59.7725 128.312C60.1136 128.573 60.3558 128.917 60.499 129.344ZM61.9961 134V128H62.918V134H61.9961ZM62.043 127.187L62.9961 125.375H64.0742L62.8555 127.187H62.043ZM69.5127 128L67.2939 134H66.3564L64.1377 128H65.1377L66.7939 132.781H66.8564L68.5127 128H69.5127ZM73.0303 134.125C72.4521 134.125 71.9535 133.997 71.5342 133.742C71.1175 133.484 70.7959 133.125 70.5693 132.664C70.3454 132.201 70.2334 131.661 70.2334 131.047C70.2334 130.432 70.3454 129.891 70.5693 129.422C70.7959 128.951 71.111 128.583 71.5146 128.32C71.9209 128.055 72.3949 127.922 72.9365 127.922C73.249 127.922 73.5576 127.974 73.8623 128.078C74.167 128.182 74.4443 128.352 74.6943 128.586C74.9443 128.818 75.1436 129.125 75.292 129.508C75.4404 129.891 75.5146 130.362 75.5146 130.922V131.312H70.8896V130.516H74.5771C74.5771 130.177 74.5094 129.875 74.374 129.609C74.2412 129.344 74.0511 129.134 73.8037 128.98C73.5589 128.827 73.2699 128.75 72.9365 128.75C72.5693 128.75 72.2516 128.841 71.9834 129.023C71.7178 129.203 71.5133 129.437 71.3701 129.727C71.2269 130.016 71.1553 130.326 71.1553 130.656V131.188C71.1553 131.641 71.2334 132.025 71.3896 132.34C71.5485 132.652 71.7686 132.891 72.0498 133.055C72.3311 133.216 72.6579 133.297 73.0303 133.297C73.2725 133.297 73.4912 133.263 73.6865 133.195C73.8844 133.125 74.055 133.021 74.1982 132.883C74.3415 132.742 74.4521 132.568 74.5303 132.359L75.4209 132.609C75.3271 132.911 75.1696 133.177 74.9482 133.406C74.7269 133.633 74.4535 133.81 74.1279 133.937C73.8024 134.063 73.4365 134.125 73.0303 134.125ZM77.8389 126V134H76.917V126H77.8389ZM82.6211 136.25V128H83.5117V128.953H83.6211C83.6888 128.849 83.7826 128.716 83.9023 128.555C84.0247 128.391 84.1992 128.245 84.4258 128.117C84.6549 127.987 84.9648 127.922 85.3555 127.922C85.8607 127.922 86.306 128.048 86.6914 128.301C87.0768 128.553 87.3776 128.911 87.5938 129.375C87.8099 129.839 87.918 130.385 87.918 131.016C87.918 131.651 87.8099 132.202 87.5938 132.668C87.3776 133.132 87.0781 133.491 86.6953 133.746C86.3125 133.999 85.8711 134.125 85.3711 134.125C84.9857 134.125 84.6771 134.061 84.4453 133.934C84.2135 133.803 84.0352 133.656 83.9102 133.492C83.7852 133.326 83.6888 133.187 83.6211 133.078H83.543V136.25H82.6211ZM83.5273 131C83.5273 131.453 83.5937 131.853 83.7266 132.199C83.8594 132.543 84.0534 132.812 84.3086 133.008C84.5638 133.201 84.8763 133.297 85.2461 133.297C85.6315 133.297 85.9531 133.195 86.2109 132.992C86.4714 132.786 86.6667 132.51 86.7969 132.164C86.9297 131.815 86.9961 131.427 86.9961 131C86.9961 130.578 86.931 130.198 86.8008 129.859C86.6732 129.518 86.4792 129.249 86.2188 129.051C85.9609 128.85 85.6367 128.75 85.2461 128.75C84.8711 128.75 84.556 128.845 84.3008 129.035C84.0456 129.223 83.8529 129.486 83.7227 129.824C83.5924 130.16 83.5273 130.552 83.5273 131ZM91.0898 134.141C90.7096 134.141 90.3646 134.069 90.0547 133.926C89.7448 133.78 89.4987 133.57 89.3164 133.297C89.1341 133.021 89.043 132.687 89.043 132.297C89.043 131.953 89.1107 131.674 89.2461 131.461C89.3815 131.245 89.5625 131.076 89.7891 130.953C90.0156 130.831 90.2656 130.74 90.5391 130.68C90.8151 130.617 91.0924 130.568 91.3711 130.531C91.7357 130.484 92.0313 130.449 92.2578 130.426C92.487 130.4 92.6536 130.357 92.7578 130.297C92.8646 130.237 92.918 130.133 92.918 129.984V129.953C92.918 129.568 92.8125 129.268 92.6016 129.055C92.3932 128.841 92.0768 128.734 91.6523 128.734C91.2122 128.734 90.8672 128.831 90.6172 129.023C90.3672 129.216 90.1914 129.422 90.0898 129.641L89.2148 129.328C89.3711 128.964 89.5794 128.68 89.8398 128.477C90.1029 128.271 90.3893 128.128 90.6992 128.047C91.0117 127.964 91.319 127.922 91.6211 127.922C91.8138 127.922 92.0352 127.945 92.2852 127.992C92.5378 128.036 92.7813 128.129 93.0156 128.27C93.2526 128.41 93.4492 128.622 93.6055 128.906C93.7617 129.19 93.8398 129.57 93.8398 130.047V134H92.918V133.187H92.8711C92.8086 133.318 92.7044 133.457 92.5586 133.605C92.4128 133.754 92.2188 133.88 91.9766 133.984C91.7344 134.089 91.4388 134.141 91.0898 134.141ZM91.2305 133.312C91.5951 133.312 91.9023 133.241 92.1523 133.098C92.4049 132.954 92.5951 132.77 92.7227 132.543C92.8529 132.316 92.918 132.078 92.918 131.828V130.984C92.8789 131.031 92.793 131.074 92.6602 131.113C92.5299 131.15 92.3789 131.182 92.207 131.211C92.0378 131.237 91.8724 131.26 91.7109 131.281C91.5521 131.299 91.4232 131.315 91.3242 131.328C91.0846 131.359 90.8607 131.41 90.6523 131.48C90.4466 131.548 90.2799 131.651 90.1523 131.789C90.0273 131.924 89.9648 132.109 89.9648 132.344C89.9648 132.664 90.0833 132.906 90.3203 133.07C90.5599 133.232 90.8633 133.312 91.2305 133.312ZM95.5225 134V128H96.4131V128.906H96.4756C96.585 128.609 96.7829 128.368 97.0693 128.184C97.3558 127.999 97.6787 127.906 98.0381 127.906C98.1058 127.906 98.1904 127.908 98.292 127.91C98.3936 127.913 98.4704 127.917 98.5225 127.922V128.859C98.4912 128.852 98.4196 128.84 98.3076 128.824C98.1982 128.806 98.0824 128.797 97.96 128.797C97.6683 128.797 97.4079 128.858 97.1787 128.98C96.9521 129.1 96.7725 129.267 96.6396 129.48C96.5094 129.691 96.4443 129.932 96.4443 130.203V134H95.5225ZM101.381 134.141C101.001 134.141 100.656 134.069 100.346 133.926C100.036 133.78 99.7897 133.57 99.6074 133.297C99.4251 133.021 99.334 132.687 99.334 132.297C99.334 131.953 99.4017 131.674 99.5371 131.461C99.6725 131.245 99.8535 131.076 100.08 130.953C100.307 130.831 100.557 130.74 100.83 130.68C101.106 130.617 101.383 130.568 101.662 130.531C102.027 130.484 102.322 130.449 102.549 130.426C102.778 130.4 102.945 130.357 103.049 130.297C103.156 130.237 103.209 130.133 103.209 129.984V129.953C103.209 129.568 103.104 129.268 102.893 129.055C102.684 128.841 102.368 128.734 101.943 128.734C101.503 128.734 101.158 128.831 100.908 129.023C100.658 129.216 100.482 129.422 100.381 129.641L99.5059 129.328C99.6621 128.964 99.8704 128.68 100.131 128.477C100.394 128.271 100.68 128.128 100.99 128.047C101.303 127.964 101.61 127.922 101.912 127.922C102.105 127.922 102.326 127.945 102.576 127.992C102.829 128.036 103.072 128.129 103.307 128.27C103.544 128.41 103.74 128.622 103.896 128.906C104.053 129.19 104.131 129.57 104.131 130.047V134H103.209V133.187H103.162C103.1 133.318 102.995 133.457 102.85 133.605C102.704 133.754 102.51 133.88 102.268 133.984C102.025 134.089 101.73 134.141 101.381 134.141ZM101.521 133.312C101.886 133.312 102.193 133.241 102.443 133.098C102.696 132.954 102.886 132.77 103.014 132.543C103.144 132.316 103.209 132.078 103.209 131.828V130.984C103.17 131.031 103.084 131.074 102.951 131.113C102.821 131.15 102.67 131.182 102.498 131.211C102.329 131.237 102.163 131.26 102.002 131.281C101.843 131.299 101.714 131.315 101.615 131.328C101.376 131.359 101.152 131.41 100.943 131.48C100.738 131.548 100.571 131.651 100.443 131.789C100.318 131.924 100.256 132.109 100.256 132.344C100.256 132.664 100.374 132.906 100.611 133.07C100.851 133.232 101.154 133.312 101.521 133.312ZM113.813 128L111.595 134H110.657L108.438 128H109.438L111.095 132.781H111.157L112.813 128H113.813ZM117.253 134.125C116.711 134.125 116.236 133.996 115.827 133.738C115.421 133.48 115.103 133.12 114.874 132.656C114.647 132.193 114.534 131.651 114.534 131.031C114.534 130.406 114.647 129.861 114.874 129.395C115.103 128.928 115.421 128.566 115.827 128.309C116.236 128.051 116.711 127.922 117.253 127.922C117.795 127.922 118.269 128.051 118.675 128.309C119.084 128.566 119.401 128.928 119.628 129.395C119.857 129.861 119.972 130.406 119.972 131.031C119.972 131.651 119.857 132.193 119.628 132.656C119.401 133.12 119.084 133.48 118.675 133.738C118.269 133.996 117.795 134.125 117.253 134.125ZM117.253 133.297C117.664 133.297 118.003 133.191 118.269 132.98C118.534 132.77 118.731 132.492 118.858 132.148C118.986 131.805 119.05 131.432 119.05 131.031C119.05 130.63 118.986 130.257 118.858 129.91C118.731 129.564 118.534 129.284 118.269 129.07C118.003 128.857 117.664 128.75 117.253 128.75C116.841 128.75 116.503 128.857 116.237 129.07C115.972 129.284 115.775 129.564 115.647 129.91C115.52 130.257 115.456 130.63 115.456 131.031C115.456 131.432 115.52 131.805 115.647 132.148C115.775 132.492 115.972 132.77 116.237 132.98C116.503 133.191 116.841 133.297 117.253 133.297ZM123.816 134.125C123.254 134.125 122.77 133.992 122.363 133.727C121.957 133.461 121.645 133.095 121.426 132.629C121.207 132.163 121.098 131.63 121.098 131.031C121.098 130.422 121.21 129.884 121.434 129.418C121.66 128.949 121.975 128.583 122.379 128.32C122.785 128.055 123.259 127.922 123.801 127.922C124.223 127.922 124.603 128 124.941 128.156C125.28 128.312 125.557 128.531 125.773 128.812C125.99 129.094 126.124 129.422 126.176 129.797H125.254C125.184 129.523 125.027 129.281 124.785 129.07C124.546 128.857 124.223 128.75 123.816 128.75C123.457 128.75 123.142 128.844 122.871 129.031C122.603 129.216 122.393 129.478 122.242 129.816C122.094 130.152 122.02 130.547 122.02 131C122.02 131.464 122.092 131.867 122.238 132.211C122.387 132.555 122.595 132.822 122.863 133.012C123.134 133.202 123.452 133.297 123.816 133.297C124.056 133.297 124.273 133.255 124.469 133.172C124.664 133.089 124.829 132.969 124.965 132.812C125.1 132.656 125.197 132.469 125.254 132.25H126.176C126.124 132.604 125.995 132.923 125.789 133.207C125.586 133.488 125.316 133.712 124.98 133.879C124.647 134.043 124.259 134.125 123.816 134.125ZM130.039 134.125C129.461 134.125 128.962 133.997 128.543 133.742C128.126 133.484 127.805 133.125 127.578 132.664C127.354 132.201 127.242 131.661 127.242 131.047C127.242 130.432 127.354 129.891 127.578 129.422C127.805 128.951 128.12 128.583 128.523 128.32C128.93 128.055 129.404 127.922 129.945 127.922C130.258 127.922 130.566 127.974 130.871 128.078C131.176 128.182 131.453 128.352 131.703 128.586C131.953 128.818 132.152 129.125 132.301 129.508C132.449 129.891 132.523 130.362 132.523 130.922V131.312H127.898V130.516H131.586C131.586 130.177 131.518 129.875 131.383 129.609C131.25 129.344 131.06 129.134 130.813 128.98C130.568 128.827 130.279 128.75 129.945 128.75C129.578 128.75 129.26 128.841 128.992 129.023C128.727 129.203 128.522 129.437 128.379 129.727C128.236 130.016 128.164 130.326 128.164 130.656V131.188C128.164 131.641 128.242 132.025 128.398 132.34C128.557 132.652 128.777 132.891 129.059 133.055C129.34 133.216 129.667 133.297 130.039 133.297C130.281 133.297 130.5 133.263 130.695 133.195C130.893 133.125 131.064 133.021 131.207 132.883C131.35 132.742 131.461 132.568 131.539 132.359L132.43 132.609C132.336 132.911 132.178 133.177 131.957 133.406C131.736 133.633 131.462 133.81 131.137 133.937C130.811 134.063 130.445 134.125 130.039 134.125ZM130.711 127.281L129.898 126.187L129.086 127.281H128.211V127.219L129.477 125.594H130.32L131.586 127.219V127.281H130.711Z" fill="#6B6860"/>
</svg>
