<svg width="180" height="64" viewBox="0 0 180 64" fill="none" xmlns="http://www.w3.org/2000/svg">
<rect x="0.5" y="0.5" width="179" height="63" rx="3.5" fill="#161616"/>
<rect x="0.5" y="0.5" width="179" height="63" rx="3.5" stroke="#252525"/>
<path d="M16.627 23V15.3H17.573L21.071 21.383V15.3H21.984V23H21.027L17.529 16.917V23H16.627ZM25.8737 23.132C25.441 23.132 25.0817 23.055 24.7957 22.901C24.5097 22.747 24.297 22.5453 24.1577 22.296C24.0184 22.0393 23.9487 21.7607 23.9487 21.46C23.9487 20.9027 24.1504 20.481 24.5537 20.195C24.9644 19.9017 25.5107 19.755 26.1927 19.755H27.6887V19.645C27.6887 18.6917 27.2524 18.215 26.3797 18.215C26.0277 18.215 25.7307 18.292 25.4887 18.446C25.254 18.6 25.1037 18.842 25.0377 19.172H24.0917C24.1284 18.8053 24.2494 18.49 24.4547 18.226C24.6674 17.962 24.9387 17.7603 25.2687 17.621C25.5987 17.4817 25.969 17.412 26.3797 17.412C27.157 17.412 27.7217 17.6173 28.0737 18.028C28.433 18.4313 28.6127 18.9703 28.6127 19.645V23H27.8207L27.7437 22.153H27.6667C27.5054 22.417 27.289 22.648 27.0177 22.846C26.7537 23.0367 26.3724 23.132 25.8737 23.132ZM26.0387 22.318C26.3907 22.318 26.6877 22.2337 26.9297 22.065C27.179 21.8963 27.366 21.6727 27.4907 21.394C27.6227 21.1153 27.6887 20.811 27.6887 20.481H26.2697C25.771 20.481 25.419 20.5653 25.2137 20.734C25.0157 20.9027 24.9167 21.1263 24.9167 21.405C24.9167 21.691 25.012 21.9147 25.2027 22.076C25.3934 22.2373 25.672 22.318 26.0387 22.318ZM30.9954 23V22.208H32.3924V18.611C32.3924 18.4277 32.3044 18.336 32.1284 18.336H31.1384V17.544H32.4694C32.7114 17.544 32.9057 17.61 33.0524 17.742C33.1991 17.874 33.2724 18.0683 33.2724 18.325V18.556H33.3164C33.4044 18.1893 33.5694 17.907 33.8114 17.709C34.0607 17.511 34.4054 17.412 34.8454 17.412H35.8464V18.391H34.7134C34.2661 18.391 33.9214 18.5413 33.6794 18.842C33.4374 19.1353 33.3164 19.513 33.3164 19.975V22.208H35.0324V23H30.9954ZM38.0311 23V22.208H39.4281V18.611C39.4281 18.4277 39.3401 18.336 39.1641 18.336H38.1741V17.544H39.5051C39.7471 17.544 39.9414 17.61 40.0881 17.742C40.2348 17.874 40.3081 18.0683 40.3081 18.325V18.556H40.3521C40.4401 18.1893 40.6051 17.907 40.8471 17.709C41.0964 17.511 41.4411 17.412 41.8811 17.412H42.8821V18.391H41.7491C41.3018 18.391 40.9571 18.5413 40.7151 18.842C40.4731 19.1353 40.3521 19.513 40.3521 19.975V22.208H42.0681V23H38.0311ZM46.9808 23.132C46.5481 23.132 46.1888 23.055 45.9028 22.901C45.6168 22.747 45.4041 22.5453 45.2648 22.296C45.1255 22.0393 45.0558 21.7607 45.0558 21.46C45.0558 20.9027 45.2575 20.481 45.6608 20.195C46.0715 19.9017 46.6178 19.755 47.2998 19.755H48.7958V19.645C48.7958 18.6917 48.3595 18.215 47.4868 18.215C47.1348 18.215 46.8378 18.292 46.5958 18.446C46.3611 18.6 46.2108 18.842 46.1448 19.172H45.1988C45.2355 18.8053 45.3565 18.49 45.5618 18.226C45.7745 17.962 46.0458 17.7603 46.3758 17.621C46.7058 17.4817 47.0761 17.412 47.4868 17.412C48.2641 17.412 48.8288 17.6173 49.1808 18.028C49.5401 18.4313 49.7198 18.9703 49.7198 19.645V23H48.9278L48.8508 22.153H48.7738C48.6125 22.417 48.3961 22.648 48.1248 22.846C47.8608 23.0367 47.4795 23.132 46.9808 23.132ZM47.1458 22.318C47.4978 22.318 47.7948 22.2337 48.0368 22.065C48.2861 21.8963 48.4731 21.6727 48.5978 21.394C48.7298 21.1153 48.7958 20.811 48.7958 20.481H47.3768C46.8781 20.481 46.5261 20.5653 46.3208 20.734C46.1228 20.9027 46.0238 21.1263 46.0238 21.405C46.0238 21.691 46.1191 21.9147 46.3098 22.076C46.5005 22.2373 46.7791 22.318 47.1458 22.318ZM55.0505 23C54.5518 23 54.1595 22.879 53.8735 22.637C53.5875 22.395 53.4445 21.9587 53.4445 21.328V18.336H52.0585V17.544H52.8835C53.2575 17.544 53.4738 17.3607 53.5325 16.994L53.6865 16.147H54.3685V17.544H56.5465V18.336H54.3685V21.328C54.3685 21.636 54.4382 21.8523 54.5775 21.977C54.7242 22.1017 54.9735 22.164 55.3255 22.164H56.5465V23H55.0505ZM61.4482 16.576C61.2282 16.576 61.0449 16.5027 60.8982 16.356C60.7516 16.2093 60.6782 16.0333 60.6782 15.828C60.6782 15.6153 60.7516 15.4393 60.8982 15.3C61.0449 15.1533 61.2282 15.08 61.4482 15.08C61.6609 15.08 61.8406 15.1533 61.9872 15.3C62.1412 15.4393 62.2182 15.6153 62.2182 15.828C62.2182 16.0333 62.1412 16.2093 61.9872 16.356C61.8406 16.5027 61.6609 16.576 61.4482 16.576ZM59.3142 23V22.208H61.0522V18.611C61.0522 18.4277 60.9606 18.336 60.7772 18.336H59.5012V17.544H60.9972C61.6499 17.544 61.9762 17.8703 61.9762 18.523V22.208H63.7142V23H59.3142ZM68.0109 23L65.6129 17.544H66.6689L68.5499 21.988L70.4419 17.544H71.4869L69.0779 23H68.0109ZM75.1236 23.132C74.691 23.132 74.3316 23.055 74.0456 22.901C73.7596 22.747 73.547 22.5453 73.4076 22.296C73.2683 22.0393 73.1986 21.7607 73.1986 21.46C73.1986 20.9027 73.4003 20.481 73.8036 20.195C74.2143 19.9017 74.7606 19.755 75.4426 19.755H76.9386V19.645C76.9386 18.6917 76.5023 18.215 75.6296 18.215C75.2776 18.215 74.9806 18.292 74.7386 18.446C74.504 18.6 74.3536 18.842 74.2876 19.172H73.3416C73.3783 18.8053 73.4993 18.49 73.7046 18.226C73.9173 17.962 74.1886 17.7603 74.5186 17.621C74.8486 17.4817 75.219 17.412 75.6296 17.412C76.407 17.412 76.9716 17.6173 77.3236 18.028C77.683 18.4313 77.8626 18.9703 77.8626 19.645V23H77.0706L76.9936 22.153H76.9166C76.7553 22.417 76.539 22.648 76.2676 22.846C76.0036 23.0367 75.6223 23.132 75.1236 23.132ZM75.2886 22.318C75.6406 22.318 75.9376 22.2337 76.1796 22.065C76.429 21.8963 76.616 21.6727 76.7406 21.394C76.8726 21.1153 76.9386 20.811 76.9386 20.481H75.5196C75.021 20.481 74.669 20.5653 74.4636 20.734C74.2656 20.9027 74.1666 21.1263 74.1666 21.405C74.1666 21.691 74.262 21.9147 74.4526 22.076C74.6433 22.2373 74.922 22.318 75.2886 22.318Z" fill="#6B6860"/>
<path d="M24.3636 44.0114L20.0682 47.1136L21.7614 42.0682L17.4545 38.9545H22.7273L24.3636 33.9091L26 38.9545H31.2727L26.9659 42.0682L28.6591 47.1136L24.3636 44.0114ZM41.098 44.0114L36.8026 47.1136L38.4957 42.0682L34.1889 38.9545H39.4616L41.098 33.9091L42.7344 38.9545H48.0071L43.7003 42.0682L45.3935 47.1136L41.098 44.0114ZM57.8324 44.0114L53.5369 47.1136L55.2301 42.0682L50.9233 38.9545H56.196L57.8324 33.9091L59.4688 38.9545H64.7415L60.4347 42.0682L62.1278 47.1136L57.8324 44.0114ZM74.5668 44.0114L70.2713 47.1136L71.9645 42.0682L67.6577 38.9545H72.9304L74.5668 33.9091L76.2031 38.9545H81.4759L77.169 42.0682L78.8622 47.1136L74.5668 44.0114ZM91.3011 44.0114L87.0057 47.1136L88.6989 42.0682L84.392 38.9545H89.6648L91.3011 33.9091L92.9375 38.9545H98.2102L93.9034 42.0682L95.5966 47.1136L91.3011 44.0114ZM91.3011 42.6023L93.392 44.1136L92.5625 41.6364L94.6989 40.0909H92.1193L91.3011 37.5909L90.4943 40.0909H87.9034L90.0398 41.6364L89.2102 44.1136L91.3011 42.6023Z" fill="#E85C2F"/>
</svg>
